<?xml version="1.0" standalone="no"?>
<!DOCTYPE svg PUBLIC "-//W3C//DTD SVG 20010904//EN"
 "http://www.w3.org/TR/2001/REC-SVG-20010904/DTD/svg10.dtd">
<svg version="1.0" xmlns="http://www.w3.org/2000/svg"
 width="500.000000pt" height="500.000000pt" viewBox="0 0 500.000000 500.000000"
 preserveAspectRatio="xMidYMid meet">
<metadata>
Created by potrace 1.14, written by Peter Selinger 2001-2017
</metadata>
<g transform="translate(0.000000,500.000000) scale(0.100000,-0.100000)"
fill="#000000" stroke="none">
<path d="M2455 4846 c-41 -18 -73 -59 -83 -104 -5 -20 -8 -145 -7 -277 2 -220
3 -243 22 -275 47 -83 166 -101 226 -35 43 48 47 73 47 330 0 283 -3 299 -72
353 -24 19 -98 24 -133 8z"/>
<path d="M945 4221 c6 -11 0 -13 -30 -9 -31 3 -40 0 -52 -19 -9 -14 -22 -22
-30 -19 -8 3 -11 1 -8 -4 3 -6 0 -10 -7 -10 -9 0 -9 -3 2 -10 13 -8 13 -10 -2
-10 -11 0 -15 -5 -12 -15 4 -8 -1 -17 -10 -21 -15 -6 -15 -8 1 -20 12 -8 13
-13 5 -14 -9 0 -10 -5 -3 -18 7 -13 6 -23 -2 -32 -10 -10 -9 -11 2 -5 11 6 13
4 7 -10 -5 -15 -4 -16 8 -6 11 9 14 8 12 -6 0 -11 5 -17 13 -15 12 3 12 1 1
-13 -11 -14 -11 -16 0 -13 8 2 14 -4 15 -12 0 -9 8 -14 18 -12 12 2 17 -4 17
-20 0 -17 3 -19 9 -9 7 11 10 9 16 -8 3 -11 12 -21 20 -21 7 0 15 -9 18 -20 3
-11 13 -20 22 -20 9 0 13 -4 10 -10 -3 -5 1 -10 10 -10 9 0 13 -4 10 -10 -3
-5 -1 -10 5 -10 6 0 18 -6 26 -14 11 -11 11 -16 1 -19 -7 -3 -5 -6 6 -6 9 -1
17 -5 17 -11 0 -5 6 -10 13 -10 7 0 21 -13 30 -30 10 -16 24 -30 31 -30 8 0
20 -8 27 -17 13 -17 13 -17 -6 -3 -19 14 -19 14 -6 -2 7 -10 24 -18 38 -18 14
0 21 -4 18 -10 -4 -6 6 -10 22 -11 15 0 39 -2 51 -3 13 -2 26 3 29 11 3 7 9
13 15 13 5 0 6 -6 2 -12 -4 -7 6 -1 23 15 16 15 33 24 38 20 4 -5 5 -1 3 7 -3
8 2 24 11 34 9 11 11 16 4 12 -9 -5 -10 0 -2 24 9 23 8 34 -2 47 -10 12 -10
15 -1 9 10 -6 10 -2 1 18 -7 14 -17 22 -23 19 -6 -4 -5 1 3 10 13 17 6 23 -22
18 -4 0 -6 5 -5 11 2 7 -3 12 -9 10 -7 -1 -13 7 -13 18 0 11 -6 19 -12 18 -7
-2 -12 3 -10 10 1 6 -3 12 -9 12 -14 0 -75 61 -72 72 2 4 -7 8 -19 8 -12 0
-19 3 -15 6 3 3 -5 16 -19 29 -13 12 -24 29 -24 36 0 11 -2 11 -10 -1 -8 -13
-10 -12 -10 3 0 9 -4 17 -10 17 -5 0 -10 8 -10 18 0 14 -2 15 -10 2 -8 -13
-10 -12 -10 3 0 10 -4 15 -10 12 -5 -3 -10 3 -10 15 0 12 -4 18 -10 15 -5 -3
-10 -1 -10 5 0 7 -7 9 -16 6 -8 -3 -13 -2 -10 3 3 5 -2 15 -11 22 -14 12 -16
12 -9 -1 4 -9 1 -8 -7 3 -16 20 -32 23 -21 5 4 -7 -3 -4 -16 7 -13 11 -20 14
-15 6z"/>
<path d="M3984 4216 c-27 -12 -120 -103 -296 -288 -82 -87 -83 -88 -95 -124
-13 -36 -9 -78 9 -113 14 -28 38 -57 38 -46 0 4 7 -1 16 -9 8 -9 23 -17 32
-17 9 -1 28 -3 42 -4 27 -4 80 15 80 27 0 5 5 8 10 8 6 0 50 42 99 93 49 50
124 128 166 172 42 44 84 96 91 116 50 123 -70 238 -192 185z"/>
<path d="M2477 3824 c-1 -1 -38 -4 -82 -8 -417 -33 -759 -216 -980 -526 -140
-197 -206 -377 -240 -655 -9 -73 -6 -309 5 -390 40 -289 141 -506 319 -687
202 -204 455 -330 746 -373 128 -18 423 -13 550 10 379 69 622 213 815 482 87
121 160 276 164 346 l1 22 -235 0 -235 0 -40 -81 c-91 -183 -213 -292 -420
-375 -43 -17 -92 -28 -195 -46 -14 -2 -81 -4 -150 -4 -257 -1 -434 61 -571
201 -135 138 -213 328 -234 572 l-6 66 958 1 c527 0 1007 0 1067 1 l109 0 -7
173 c-5 147 -22 307 -39 382 -53 227 -135 384 -271 520 -173 173 -425 294
-731 350 -47 8 -292 24 -298 19z m228 -384 c28 -6 59 -12 70 -14 35 -7 119
-38 160 -59 214 -107 336 -309 379 -623 l4 -31 -804 0 c-579 0 -804 3 -805 11
-4 38 11 133 31 199 86 278 354 493 655 525 96 10 241 6 310 -8z"/>
<path d="M4239 2645 c-13 -7 -27 -11 -31 -9 -11 7 -91 -74 -83 -85 3 -6 2 -11
-3 -11 -11 0 -8 -67 6 -100 11 -28 45 -60 82 -76 30 -13 511 -11 551 3 39 13
74 45 86 79 14 39 8 114 -9 125 -7 5 -9 9 -4 9 5 0 -5 13 -24 30 -18 16 -37
27 -41 24 -5 -3 -9 -1 -9 5 0 7 -72 9 -210 8 -135 -1 -210 2 -210 8 0 6 -4 4
-8 -2 -6 -9 -17 -10 -38 -4 -21 6 -38 4 -55 -4z"/>
<path d="M305 2640 c4 -7 -2 -9 -19 -4 -16 4 -26 2 -26 -5 0 -6 -6 -8 -13 -5
-7 2 -22 -4 -34 -15 -11 -11 -24 -17 -27 -14 -6 6 -10 -13 -7 -30 1 -5 -3 -6
-9 -2 -5 3 -13 -2 -16 -12 -3 -10 -9 -25 -14 -34 -5 -10 -4 -21 2 -27 6 -6 6
-12 -1 -16 -16 -10 -13 -26 4 -26 9 0 12 -6 9 -15 -4 -8 -1 -15 5 -15 6 0 11
-5 11 -11 0 -16 41 -50 51 -43 5 3 9 -2 9 -12 0 -14 2 -15 17 -3 12 10 15 10
9 1 -6 -10 1 -12 28 -9 20 2 36 0 36 -6 0 -5 7 -4 15 3 8 7 15 9 15 5 0 -4 7
-2 15 5 13 11 14 10 9 -5 -6 -15 -4 -16 14 -6 17 9 22 9 22 -1 0 -10 2 -10 9
0 4 8 12 14 16 14 4 0 12 -6 16 -14 7 -11 9 -11 9 1 0 11 3 11 15 1 8 -7 15
-8 15 -3 0 13 33 12 42 -1 5 -7 8 -6 8 3 0 10 3 11 14 2 11 -10 17 -8 25 6 6
10 11 13 11 7 0 -7 7 -15 16 -18 8 -3 13 -2 9 3 -7 12 118 9 126 -3 4 -5 10 2
14 14 5 16 9 19 15 10 12 -20 95 32 97 61 1 12 8 26 15 30 10 7 10 9 -2 9 -10
0 -11 3 -4 8 13 8 14 64 1 73 -4 3 -9 15 -10 27 0 11 -4 19 -8 16 -4 -2 -9 3
-13 11 -3 8 -12 15 -21 15 -8 0 -15 5 -15 12 0 6 -3 8 -7 5 -3 -4 -12 1 -20
11 -8 9 -12 11 -8 5 8 -16 -11 -17 -21 -2 -4 8 -9 7 -15 -2 -6 -10 -9 -11 -9
-1 0 6 -5 12 -11 12 -5 0 -7 -6 -3 -12 5 -9 2 -9 -9 1 -9 7 -17 9 -17 4 0 -5
-7 -10 -15 -10 -8 0 -15 4 -15 8 0 9 -20 6 -37 -4 -8 -5 -13 -3 -13 5 0 9 -3
9 -10 -2 -9 -13 -10 -13 -10 0 0 9 -3 11 -8 5 -11 -15 -32 -17 -32 -2 0 9 -3
8 -9 -2 -6 -9 -10 -10 -16 -2 -5 9 -10 9 -21 0 -11 -9 -14 -8 -14 2 0 12 -2
12 -9 0 -6 -9 -10 -10 -16 -2 -5 9 -10 9 -20 1 -9 -8 -15 -8 -20 0 -4 7 -12 7
-25 0 -13 -7 -21 -7 -25 0 -5 8 -12 7 -22 -1 -9 -8 -17 -9 -21 -3 -10 13 -35
17 -27 4z"/>
<path d="M1201 1423 c-1 -7 -8 -13 -17 -13 -8 0 -22 -7 -31 -16 -9 -8 -22 -13
-30 -10 -8 3 -11 2 -8 -4 6 -10 -125 -146 -137 -142 -5 1 -8 -3 -8 -9 0 -18
-50 -60 -62 -53 -6 4 -8 3 -5 -2 7 -13 -1 -24 -38 -53 -16 -12 -28 -24 -25
-25 3 -1 -9 -16 -26 -32 -35 -32 -59 -105 -41 -123 8 -8 7 -11 -3 -11 -9 0 -5
-9 11 -27 13 -14 18 -23 11 -18 -11 6 -12 3 -4 -12 12 -22 42 -49 42 -38 0 4
6 2 13 -4 8 -6 17 -8 20 -4 4 3 7 1 7 -6 0 -7 4 -10 9 -7 5 4 12 0 14 -6 4
-10 6 -10 6 -1 1 7 8 10 16 7 9 -4 15 0 15 7 0 12 2 12 9 0 6 -9 11 -10 15 -2
4 6 14 11 22 11 19 0 45 25 36 34 -3 4 2 4 11 0 12 -4 17 -2 15 7 -2 8 3 13
10 11 6 -1 12 2 12 7 0 12 46 62 57 63 4 0 7 4 5 9 -2 9 13 13 33 9 5 -1 7 2
3 6 -10 9 11 36 23 28 5 -3 6 3 2 12 -4 11 -3 15 5 10 6 -3 13 3 17 14 3 11
11 20 17 20 14 0 58 47 50 54 -3 3 0 6 6 6 15 0 52 36 52 51 0 5 4 8 9 5 9 -6
26 22 23 37 -1 4 2 7 7 7 5 0 8 12 5 26 -3 14 -1 23 4 21 4 -3 8 3 8 14 0 10
-4 19 -9 19 -4 0 -5 5 -2 10 4 6 1 17 -5 25 -7 8 -9 15 -5 15 5 0 0 9 -10 20
-10 11 -24 20 -32 20 -7 0 -13 5 -13 10 0 6 -9 10 -20 10 -11 0 -20 5 -20 11
0 8 -6 7 -17 -2 -14 -12 -15 -12 -9 -1 7 11 4 12 -12 3 -15 -8 -22 -8 -25 2
-4 9 -6 9 -6 0z m150 -60 c13 -16 12 -17 -3 -4 -10 7 -18 15 -18 17 0 8 8 3
21 -13z m-530 -510 c13 -16 12 -17 -3 -4 -10 7 -18 15 -18 17 0 8 8 3 21 -13z"/>
<path d="M3720 1412 c-14 -2 -28 -9 -32 -16 -4 -6 -12 -11 -18 -11 -5 0 -9 -3
-7 -7 1 -4 -7 -13 -17 -21 -19 -14 -28 -35 -27 -69 0 -10 -5 -18 -11 -18 -6 0
-6 -6 2 -15 7 -8 9 -15 4 -15 -4 0 -3 -5 4 -12 7 -7 12 -18 12 -25 0 -15 97
-113 111 -113 5 0 8 -3 7 -7 -1 -5 17 -27 40 -49 23 -23 42 -40 42 -39 0 2 39
-35 86 -81 47 -46 92 -84 100 -84 8 0 14 -5 14 -12 0 -6 2 -9 6 -6 3 3 20 2
39 -2 19 -4 35 -4 37 1 2 5 13 10 26 12 13 2 27 9 32 17 4 7 13 9 20 5 9 -5
11 -4 6 3 -4 6 1 19 11 29 19 19 28 123 11 123 -5 0 -6 5 -3 11 4 5 -5 21 -18
33 -14 13 -23 27 -19 30 3 4 -4 9 -16 13 -12 3 -22 11 -22 17 0 6 -9 19 -20
29 -11 9 -20 15 -20 14 0 -2 -31 26 -69 62 -37 36 -66 69 -64 74 2 4 -2 7 -9
7 -7 0 -27 15 -44 33 -37 39 -78 72 -83 68 -2 -1 -7 2 -10 7 -7 12 -65 19
-101 14z"/>
<path d="M2461 877 c-6 -6 -11 -8 -11 -3 0 7 -8 1 -42 -31 -26 -24 -38 -43
-38 -58 0 -9 -4 -24 -9 -34 -6 -10 -6 -23 -1 -31 5 -8 4 -22 -1 -32 -5 -10 -6
-18 -1 -18 8 0 9 -44 2 -75 -1 -5 -1 -12 0 -15 8 -19 5 -108 -3 -103 -6 4 -7
1 -1 -8 13 -20 12 -89 0 -89 -7 0 -7 -3 0 -8 6 -4 12 -25 12 -47 2 -81 7 -100
38 -132 18 -17 30 -34 27 -37 -3 -3 4 -4 16 -1 11 2 21 0 21 -5 0 -5 7 -6 17
-3 11 4 14 3 9 -5 -5 -9 0 -9 19 -2 15 6 31 8 36 4 5 -3 9 0 9 6 0 6 4 9 9 5
5 -3 13 0 16 6 4 5 14 8 23 4 9 -3 13 -3 10 1 -4 3 4 22 17 41 13 20 22 44 20
54 -2 11 -1 19 3 19 4 0 7 11 7 25 0 14 -4 25 -9 25 -5 0 -3 7 4 15 10 12 10
15 0 15 -10 0 -10 3 0 15 10 12 10 15 -1 15 -9 0 -10 3 -4 8 11 7 16 52 6 52
-9 0 -7 83 2 97 4 6 3 14 -3 18 -5 3 -10 11 -10 16 0 6 6 7 13 3 9 -6 9 -5 0
7 -10 12 -10 18 -1 27 7 7 8 12 2 12 -5 0 -10 9 -11 20 -1 11 3 20 9 20 7 0 7
4 1 13 -11 14 -11 27 1 46 7 10 6 12 -4 6 -10 -6 -12 -3 -7 14 3 12 -1 28 -10
36 -8 9 -10 15 -3 15 6 0 2 10 -10 22 -11 12 -20 26 -20 30 0 5 -4 7 -9 4 -5
-3 -14 1 -21 10 -7 8 -19 13 -27 10 -7 -3 -13 -2 -13 2 0 12 -67 11 -79 -1z"/>
</g>
</svg>
